<?xml version="1.0" encoding="UTF-8"?>
<svg id="a" data-name="1" xmlns="http://www.w3.org/2000/svg" viewBox="0 0 836.86 372.08">
  <rect width="836.86" height="372.08" style="fill: #b6ade6; stroke-width: 0px;"/>
  <g>
    <g>
      <path d="M123.68,248.4c4.92-4.92,9.64-9.76,14.54-14.41.74-.7,2.37-.74,3.56-.67,13.41.82,26.8,2.04,40.22,2.49,11.03.37,21.3-2.47,29.91-9.9,1.69-1.46,3.77-2.38,5.58-.43,1.87,2.02.4,3.96-.94,5.57-12.15,14.46-27.56,22.46-46.52,23.52-15.49.87-30.51-2.11-45.48-5.47-.16-.04-.29-.24-.85-.71Z" style="fill: #fff; stroke-width: 0px;"/>
      <path d="M155.61,204.19c-.41-5.01-.78-10.02-1.23-15.03-1.08-12.23-1.58-24.44.87-36.58,2.24-11.14,7.8-20.1,17.35-26.45.5-.33.99-.84,1.53-.89,1.39-.14,3.27-.61,4.06.07.73.63.8,2.8.33,3.95-2.88,6.97-4.96,14.12-4.9,21.69.08,10.44.39,20.89.82,31.32.12,2.88-.4,5.05-2.58,7.11-5.2,4.91-10.16,10.07-15.22,15.13-.34-.11-.69-.22-1.03-.33Z" style="fill: #fff; stroke-width: 0px;"/>
      <path d="M118.75,242.21c-1.32-7.02-2.75-13.2-3.6-19.46-1.57-11.63-3.06-23.25-1.52-35.06,2.05-15.79,9.85-28.09,22.06-37.89.61-.49,1.33-1.11,2.04-1.17,1.08-.1,2.6-.13,3.21.5.61.63.74,2.29.36,3.19-.56,1.32-1.78,2.35-2.7,3.52-7.24,9.07-9.87,19.58-9.5,30.96.42,12.92.9,25.85,1.51,38.76.16,3.32-.61,5.88-3.22,8.11-2.86,2.44-5.38,5.28-8.63,8.54Z" style="fill: #fff; stroke-width: 0px;"/>
      <path d="M182.27,178.13c-.21-15.72-2.76-31.07,3.49-45.83,3.45-8.15,8.41-15.11,15.86-20.01,1.61-1.06,3.8-1.22,5.72-1.8-.2,1.85-.07,3.82-.65,5.54-2.26,6.68-3.26,13.5-3.05,20.53.18,5.76.39,11.53.38,17.29,0,1.47-.34,3.37-1.27,4.34-6.27,6.52-12.74,12.85-19.15,19.23-.19.19-.49.27-1.33.71Z" style="fill: #fff; stroke-width: 0px;"/>
      <path d="M241.02,131.2c3.42-3.42,6.35-6.35,9.28-9.28.63-.63,1.26-1.27,1.84-1.95,1.59-1.87,2.16-3.99.34-5.9-1.94-2.04-4.13-1.15-5.82.45-3.81,3.62-7.46,7.4-11.81,11.75-.21-2.53-.57-4.35-.47-6.14.61-11.07,8.2-21.21,18.84-24.46,4.29-1.31,8.92-1.92,13.41-2.05,3.84-.11,6.08,2.41,6.31,6.24,1.08,17.79-12.05,33-29.85,31.68-.39-.03-.77-.13-2.06-.36Z" style="fill: #fff; stroke-width: 0px;"/>
      <path d="M162.64,209.13c4.13-4.13,7.8-8,11.74-11.58.81-.73,2.64-.54,3.98-.45,8.44.55,16.87,1.61,25.3,1.68,6.5.05,13.19-.39,19.46-1.95,4.73-1.18,8.95-4.46,13.38-6.84.6-.32,1.07-1.06,1.68-1.17.99-.18,2.37-.38,2.99.14.59.5.86,2.12.49,2.87-.91,1.84-2.12,3.58-3.45,5.16-8.11,9.63-18.75,14.71-31.1,14.75-14,.05-28-1.2-42-1.91-.56-.03-1.1-.31-2.47-.71Z" style="fill: #fff; stroke-width: 0px;"/>
      <path d="M199.32,172.64c5.32-5.32,10.01-10.13,14.87-14.76.79-.75,2.33-1,3.52-.98,9.13.13,18.26.43,27.4.55,2.47.03,4.94-.42,7.42-.57,3.8-.23,5.21,1.72,3.6,5.21-2.43,5.24-6.66,8.86-12.05,10.42-4.7,1.36-9.74,2.22-14.62,2.18-9.23-.07-18.45-.95-27.67-1.5-.47-.03-.94-.2-2.47-.54Z" style="fill: #fff; stroke-width: 0px;"/>
      <path d="M212.27,148.64c-.74-13.61-1.76-26.62,5.71-38.42,3.05-4.82,7.19-8.46,12.11-11.21.88-.49,2.18-.26,3.28-.36-.15,1.08.04,2.4-.51,3.2-6.29,9.12-7.9,19.1-5.85,29.86.16.84-.04,2.11-.59,2.68-4.47,4.63-9.06,9.15-14.15,14.25Z" style="fill: #fff; stroke-width: 0px;"/>
      <path d="M145.19,162.64c.11,2.23.21,4.47.34,6.7.81,13.7,1.67,27.39,2.36,41.1.07,1.36-.61,3.04-1.51,4.09-2.16,2.53-4.65,4.77-7.52,7.64-.41-6.67-.92-12.58-1.09-18.5-.22-7.75-.5-15.52-.12-23.26.21-4.29,1.48-8.59,2.73-12.75.6-2.01,2.26-3.69,3.44-5.53l1.37.51Z" style="fill: #fff; stroke-width: 0px;"/>
      <path d="M146.47,225.36c2.62-2.62,4.86-4.98,7.25-7.17.56-.51,1.65-.7,2.47-.65,14.89.88,29.78,1.81,44.67,2.76.85.05,1.68.39,3.28.78-1.37,1.37-2.12,2.73-3.22,3.11-4.19,1.44-8.5,3.65-12.74,3.6-13.41-.16-26.8-1.21-40.2-1.92-.28-.01-.55-.18-1.52-.51Z" style="fill: #fff; stroke-width: 0px;"/>
      <path d="M223.71,148.26c3.21-3.21,6.37-6.45,9.66-9.57.42-.4,1.49-.36,2.18-.19,10.45,2.44,20.08.53,29.05-5.26,2.06-.95,2.12-.32,3.2-.45-.03,1.08.33,2.37-.14,3.21-3.49,6.31-8.27,11.31-15.57,12.89-9.22,1.99-18.54,1.14-27.82.37-.19-.34-.38-.67-.57-1.01Z" style="fill: #fff; stroke-width: 0px;"/>
      <path d="M96.66,222.12c-1.04-6.79-1.14-14.5.76-21.62.31-1.14,1.51-2.85,2.34-2.87,1.34-.03,3.19.79,3.93,1.86.94,1.37,1.3,3.33,1.38,5.07.64,13.75,2.61,27.31,5.35,40.77.19.91.18,1.86.33,3.53-5.42-4.74-9.39-9.59-11.15-15.87" style="fill: #fff; stroke-width: 0px;"/>
      <path d="M231.81,183.69c-5.89,5.88-12.42,7.48-19.3,7.32-9.23-.21-18.45-.99-27.67-1.54-.36-.02-.71-.21-1.93-.58,2.94-2.94,5.45-5.56,8.11-8.02.54-.5,1.67-.56,2.5-.51,11.4.66,22.81,1.34,34.21,2.11,1.23.08,2.42.71,4.08,1.22Z" style="fill: #fff; stroke-width: 0px;"/>
      <path d="M135.45,268.18c-6.86-1.92-12.66-5.42-16.69-11.4,13.99,2.98,27.85,5.4,42,5.81,1.69.05,3.52-.34,5.03.19,1.47.52,3.2,1.72,3.77,3.06.83,1.94-1.02,2.96-2.7,3.53-7.14,2.42-14.47,2.53-21.78,1.19" style="fill: #fff; stroke-width: 0px;"/>
      <path d="M96.77,264.66c2.32-2.32,4.59-4.67,6.96-6.94,2.24-2.14,4.87-2.5,6.35-.82,1.96,2.22.94,4.34-.74,6.08-4.76,4.92-9.58,9.79-14.5,14.56-1.68,1.63-3.85,2.42-5.81.4-1.92-1.98-1.14-4.12.44-5.85,2.34-2.56,4.88-4.94,7.34-7.4l-.04-.04Z" style="fill: #fff; stroke-width: 0px;"/>
    </g>
    <g>
      <path d="M310.13,149.94v81.38h33.8v9.62h-44.2v-91h10.4Z" style="fill: #fff; stroke-width: 0px;"/>
      <path d="M353.94,211.3v-43.16h10.4v44.46c0,11.83,5.98,20.54,18.33,20.54s18.33-8.71,18.33-20.54v-44.46h10.4v43.16c0,19.89-10.53,31.2-28.73,31.2s-28.73-11.31-28.73-31.2Z" style="fill: #fff; stroke-width: 0px;"/>
      <path d="M438.31,168.14v14.04c3.51-10.53,11.57-15.6,21.71-15.6s19.76,5.59,23.4,17.42c3.38-11.7,12.61-17.42,23.4-17.42,13.52,0,25.09,9.36,25.09,29.51v44.85h-10.4v-44.85c0-12.09-5.59-20.28-17.42-20.28-13,0-18.98,9.75-18.98,22.88v42.25h-10.4v-44.85c0-12.09-5.59-20.28-17.42-20.28-13,0-18.98,9.75-18.98,22.88v42.25h-10.4v-72.8h10.4Z" style="fill: #fff; stroke-width: 0px;"/>
      <path d="M548.16,144.74h10.92v10.4h-10.92v-10.4ZM558.82,168.14v72.8h-10.4v-72.8h10.4Z" style="fill: #fff; stroke-width: 0px;"/>
      <path d="M586.12,168.14v14.17c3.51-10.53,11.83-15.73,22.36-15.73,13.91,0,25.74,9.36,25.74,29.51v44.85h-10.4v-44.85c0-12.09-5.85-20.28-18.07-20.28-13.39,0-19.63,9.75-19.63,22.88v42.25h-10.4v-72.8h10.4Z" style="fill: #fff; stroke-width: 0px;"/>
      <path d="M721.58,204.54c0,21.45-15.47,37.96-37.31,37.96s-37.31-16.51-37.31-37.96,15.47-37.96,37.31-37.96,37.31,16.51,37.31,37.96ZM684.27,233.15c16.51,0,26.91-12.48,26.91-28.6s-10.4-28.6-26.91-28.6-26.91,12.48-26.91,28.6,10.4,28.6,26.91,28.6Z" style="fill: #fff; stroke-width: 0px;"/>
      <path d="M735.36,143.44h10.4v97.5h-10.4v-97.5Z" style="fill: #fff; stroke-width: 0px;"/>
    </g>
  </g>
</svg>