<?xml version="1.0" encoding="UTF-8"?>
<svg id="e" data-name="5" xmlns="http://www.w3.org/2000/svg" viewBox="0 0 287.08 287.08">
  <path d="M92.91,205.18c4.69-4.69,9.19-9.31,13.87-13.74.71-.67,2.26-.71,3.39-.64,12.79.78,25.56,1.94,38.36,2.37,10.52.36,20.31-2.35,28.53-9.44,1.61-1.39,3.59-2.27,5.32-.41,1.78,1.92.38,3.78-.9,5.31-11.59,13.79-26.29,21.42-44.38,22.44-14.78.83-29.1-2.01-43.38-5.21-.16-.04-.28-.22-.81-.68Z" style="fill: #b6ade6; stroke-width: 0px;"/>
  <path d="M123.36,163.01c-.39-4.78-.75-9.56-1.17-14.33-1.03-11.66-1.5-23.31.83-34.89,2.14-10.62,7.44-19.17,16.55-25.23.47-.31.95-.8,1.46-.85,1.32-.13,3.12-.59,3.88.07.7.6.76,2.67.31,3.77-2.75,6.65-4.73,13.47-4.68,20.69.07,9.96.37,19.92.78,29.87.11,2.75-.38,4.82-2.46,6.79-4.96,4.69-9.69,9.6-14.52,14.43-.33-.11-.65-.21-.98-.32Z" style="fill: #b6ade6; stroke-width: 0px;"/>
  <path d="M88.21,199.28c-1.26-6.7-2.62-12.59-3.43-18.56-1.5-11.09-2.92-22.18-1.45-33.45,1.96-15.06,9.4-26.79,21.04-36.14.59-.47,1.27-1.06,1.95-1.12,1.03-.09,2.48-.12,3.06.48.58.6.71,2.19.34,3.04-.54,1.26-1.69,2.25-2.58,3.35-6.9,8.65-9.41,18.68-9.06,29.54.4,12.33.86,24.65,1.44,36.97.15,3.16-.58,5.61-3.07,7.74-2.73,2.33-5.13,5.04-8.23,8.14Z" style="fill: #b6ade6; stroke-width: 0px;"/>
  <path d="M148.8,138.15c-.2-14.99-2.63-29.64,3.33-43.72,3.29-7.77,8.02-14.41,15.12-19.08,1.53-1.01,3.62-1.17,5.46-1.72-.19,1.77-.07,3.64-.62,5.29-2.16,6.37-3.11,12.88-2.91,19.58.17,5.5.37,11,.36,16.49,0,1.4-.32,3.21-1.21,4.14-5.98,6.22-12.15,12.25-18.27,18.34-.18.18-.46.25-1.27.68Z" style="fill: #b6ade6; stroke-width: 0px;"/>
  <path d="M204.83,93.39c3.27-3.27,6.06-6.06,8.85-8.85.6-.6,1.2-1.21,1.75-1.86,1.52-1.79,2.06-3.8.32-5.63-1.85-1.95-3.94-1.09-5.55.43-3.63,3.45-7.12,7.06-11.27,11.21-.2-2.41-.55-4.14-.45-5.85.58-10.56,7.82-20.23,17.97-23.33,4.09-1.25,8.51-1.83,12.79-1.95,3.67-.1,5.8,2.3,6.02,5.95,1.03,16.97-11.49,31.48-28.47,30.22-.37-.03-.73-.12-1.97-.34Z" style="fill: #b6ade6; stroke-width: 0px;"/>
  <path d="M130.07,167.72c3.94-3.94,7.44-7.63,11.2-11.04.77-.7,2.52-.51,3.8-.43,8.05.53,16.09,1.54,24.14,1.6,6.2.05,12.58-.37,18.56-1.86,4.52-1.12,8.53-4.25,12.76-6.52.58-.31,1.02-1.01,1.6-1.12.95-.17,2.26-.36,2.85.13.56.47.82,2.02.47,2.73-.87,1.76-2.02,3.42-3.29,4.93-7.74,9.19-17.88,14.03-29.66,14.07-13.35.05-26.71-1.15-40.06-1.82-.53-.03-1.05-.29-2.36-.68Z" style="fill: #b6ade6; stroke-width: 0px;"/>
  <path d="M165.06,132.92c5.07-5.07,9.55-9.66,14.19-14.08.75-.72,2.23-.95,3.36-.94,8.71.12,17.42.41,26.13.52,2.36.03,4.72-.41,7.08-.55,3.62-.22,4.97,1.64,3.43,4.97-2.32,5-6.35,8.45-11.49,9.94-4.49,1.3-9.29,2.12-13.95,2.08-8.8-.07-17.6-.9-26.39-1.43-.45-.03-.89-.19-2.36-.52Z" style="fill: #b6ade6; stroke-width: 0px;"/>
  <path d="M177.41,110.02c-.71-12.98-1.68-25.39,5.45-36.64,2.91-4.59,6.86-8.07,11.55-10.69.84-.47,2.08-.24,3.13-.34-.15,1.03.04,2.29-.49,3.06-6,8.7-7.54,18.22-5.58,28.48.15.8-.04,2.01-.56,2.55-4.26,4.42-8.64,8.73-13.5,13.59Z" style="fill: #b6ade6; stroke-width: 0px;"/>
  <path d="M113.43,123.38c.11,2.13.2,4.26.32,6.39.77,13.07,1.59,26.13,2.25,39.2.06,1.29-.59,2.9-1.44,3.91-2.06,2.41-4.44,4.55-7.17,7.28-.39-6.36-.88-12-1.04-17.65-.21-7.39-.48-14.81-.11-22.18.2-4.1,1.41-8.2,2.6-12.17.57-1.91,2.15-3.52,3.28-5.27l1.31.49Z" style="fill: #b6ade6; stroke-width: 0px;"/>
  <path d="M114.65,183.2c2.5-2.5,4.64-4.75,6.92-6.84.54-.49,1.57-.67,2.36-.62,14.21.84,28.41,1.73,42.61,2.64.81.05,1.6.37,3.13.74-1.31,1.31-2.03,2.61-3.07,2.97-4,1.37-8.11,3.48-12.15,3.43-12.79-.15-25.57-1.15-38.35-1.83-.27-.01-.53-.17-1.45-.49Z" style="fill: #b6ade6; stroke-width: 0px;"/>
  <path d="M188.32,109.66c3.06-3.06,6.08-6.15,9.21-9.13.4-.38,1.42-.34,2.08-.19,9.97,2.33,19.15.5,27.71-5.01,1.97-.91,2.03-.3,3.06-.43-.03,1.03.31,2.26-.13,3.07-3.33,6.01-7.89,10.79-14.85,12.29-8.8,1.9-17.69,1.09-26.54.35-.18-.32-.36-.64-.54-.96Z" style="fill: #b6ade6; stroke-width: 0px;"/>
  <path d="M67.14,180.11c-.99-6.48-1.09-13.83.72-20.63.29-1.09,1.44-2.72,2.23-2.74,1.28-.03,3.04.75,3.75,1.77.9,1.3,1.24,3.18,1.32,4.83.61,13.11,2.49,26.05,5.11,38.89.18.87.17,1.77.32,3.36-5.17-4.52-8.95-9.14-10.64-15.14" style="fill: #b6ade6; stroke-width: 0px;"/>
  <path d="M196.05,143.46c-5.62,5.61-11.85,7.13-18.41,6.99-8.8-.2-17.59-.94-26.39-1.47-.34-.02-.68-.2-1.84-.55,2.81-2.81,5.2-5.31,7.74-7.65.52-.48,1.59-.54,2.39-.49,10.88.63,21.75,1.28,32.63,2.01,1.17.08,2.31.67,3.89,1.16Z" style="fill: #b6ade6; stroke-width: 0px;"/>
  <path d="M104.14,224.04c-6.55-1.83-12.07-5.17-15.92-10.87,13.35,2.84,26.56,5.15,40.06,5.54,1.61.05,3.35-.33,4.79.18,1.4.5,3.05,1.64,3.6,2.92.79,1.85-.98,2.82-2.58,3.37-6.81,2.31-13.81,2.41-20.78,1.14" style="fill: #b6ade6; stroke-width: 0px;"/>
  <path d="M67.24,220.69c2.21-2.21,4.38-4.46,6.64-6.62,2.14-2.04,4.64-2.39,6.06-.79,1.87,2.12.9,4.14-.71,5.8-4.54,4.69-9.14,9.34-13.83,13.89-1.6,1.55-3.67,2.31-5.54.39-1.83-1.88-1.09-3.93.42-5.58,2.23-2.44,4.66-4.71,7-7.06l-.04-.04Z" style="fill: #b6ade6; stroke-width: 0px;"/>
</svg>