<?xml version="1.0" encoding="UTF-8"?>
<svg id="b" data-name="2" xmlns="http://www.w3.org/2000/svg" viewBox="0 0 287.08 287.08">
  <rect x="0" width="287.08" height="287.08" style="fill: #b6ade6; stroke-width: 0px;"/>
  <g>
    <path d="M45.03,194.01v37.56h15.6v4.44h-20.4v-42h4.8Z" style="fill: #fff; stroke-width: 0px;"/>
    <path d="M65.25,222.33v-19.92h4.8v20.52c0,5.46,2.76,9.48,8.46,9.48s8.46-4.02,8.46-9.48v-20.52h4.8v19.92c0,9.18-4.86,14.4-13.26,14.4s-13.26-5.22-13.26-14.4Z" style="fill: #fff; stroke-width: 0px;"/>
    <path d="M104.19,202.41v6.48c1.62-4.86,5.34-7.2,10.02-7.2s9.12,2.58,10.8,8.04c1.56-5.4,5.82-8.04,10.8-8.04,6.24,0,11.58,4.32,11.58,13.62v20.7h-4.8v-20.7c0-5.58-2.58-9.36-8.04-9.36-6,0-8.76,4.5-8.76,10.56v19.5h-4.8v-20.7c0-5.58-2.58-9.36-8.04-9.36-6,0-8.76,4.5-8.76,10.56v19.5h-4.8v-33.6h4.8Z" style="fill: #fff; stroke-width: 0px;"/>
    <path d="M154.89,191.61h5.04v4.8h-5.04v-4.8ZM159.81,202.41v33.6h-4.8v-33.6h4.8Z" style="fill: #fff; stroke-width: 0px;"/>
    <path d="M172.41,202.41v6.54c1.62-4.86,5.46-7.26,10.32-7.26,6.42,0,11.88,4.32,11.88,13.62v20.7h-4.8v-20.7c0-5.58-2.7-9.36-8.34-9.36-6.18,0-9.06,4.5-9.06,10.56v19.5h-4.8v-33.6h4.8Z" style="fill: #fff; stroke-width: 0px;"/>
    <path d="M234.93,219.21c0,9.9-7.14,17.52-17.22,17.52s-17.22-7.62-17.22-17.52,7.14-17.52,17.22-17.52,17.22,7.62,17.22,17.52ZM217.71,232.41c7.62,0,12.42-5.76,12.42-13.2s-4.8-13.2-12.42-13.2-12.42,5.76-12.42,13.2,4.8,13.2,12.42,13.2Z" style="fill: #fff; stroke-width: 0px;"/>
    <path d="M241.29,191.01h4.8v45h-4.8v-45Z" style="fill: #fff; stroke-width: 0px;"/>
  </g>
  <g>
    <path d="M109.11,163.11c3.48-3.48,6.81-6.9,10.27-10.18.53-.5,1.67-.52,2.51-.47,9.47.58,18.93,1.44,28.41,1.76,7.79.26,15.04-1.74,21.13-6.99,1.2-1.03,2.66-1.68,3.94-.3,1.32,1.43.28,2.8-.67,3.93-8.58,10.21-19.47,15.86-32.86,16.62-10.95.62-21.55-1.49-32.13-3.86-.12-.03-.21-.17-.6-.5Z" style="fill: #fff; stroke-width: 0px;"/>
    <path d="M131.67,131.88c-.29-3.54-.55-7.08-.87-10.62-.77-8.64-1.11-17.26.61-25.84,1.58-7.87,5.51-14.2,12.25-18.68.35-.23.7-.59,1.08-.63.98-.1,2.31-.43,2.87.05.52.45.57,1.98.23,2.79-2.03,4.92-3.5,9.98-3.46,15.32.06,7.38.27,14.75.58,22.12.08,2.04-.28,3.57-1.82,5.03-3.67,3.47-7.18,7.11-10.75,10.69-.24-.08-.48-.16-.73-.23Z" style="fill: #fff; stroke-width: 0px;"/>
    <path d="M105.63,158.74c-.93-4.96-1.94-9.32-2.54-13.74-1.11-8.21-2.16-16.43-1.07-24.77,1.45-11.15,6.96-19.84,15.58-26.76.43-.35.94-.78,1.44-.83.77-.07,1.83-.09,2.26.35.43.45.52,1.62.25,2.25-.4.93-1.26,1.66-1.91,2.48-5.11,6.41-6.97,13.83-6.71,21.87.3,9.13.64,18.26,1.07,27.38.11,2.34-.43,4.15-2.27,5.73-2.02,1.73-3.8,3.73-6.1,6.03Z" style="fill: #fff; stroke-width: 0px;"/>
    <path d="M150.5,113.47c-.15-11.1-1.95-21.95,2.47-32.38,2.44-5.76,5.94-10.67,11.2-14.13,1.13-.75,2.68-.86,4.04-1.27-.14,1.31-.05,2.7-.46,3.92-1.6,4.72-2.3,9.54-2.15,14.5.12,4.07.28,8.14.27,12.21,0,1.04-.24,2.38-.9,3.07-4.43,4.61-9,9.08-13.53,13.58-.13.13-.34.19-.94.5Z" style="fill: #fff; stroke-width: 0px;"/>
    <path d="M192,80.32c2.42-2.42,4.49-4.48,6.55-6.56.45-.45.89-.9,1.3-1.38,1.12-1.32,1.53-2.82.24-4.17-1.37-1.44-2.92-.81-4.11.32-2.69,2.55-5.27,5.23-8.34,8.3-.15-1.79-.4-3.07-.33-4.33.43-7.82,5.79-14.98,13.31-17.28,3.03-.93,6.3-1.36,9.48-1.45,2.72-.08,4.29,1.7,4.46,4.41.76,12.57-8.51,23.31-21.09,22.38-.27-.02-.54-.09-1.46-.25Z" style="fill: #fff; stroke-width: 0px;"/>
    <path d="M136.63,135.37c2.92-2.92,5.51-5.65,8.3-8.18.57-.52,1.86-.38,2.81-.32,5.96.39,11.91,1.14,17.88,1.19,4.59.04,9.32-.27,13.74-1.37,3.34-.83,6.32-3.15,9.45-4.83.43-.23.76-.75,1.19-.83.7-.13,1.68-.27,2.11.1.42.35.61,1.5.35,2.02-.64,1.3-1.5,2.53-2.44,3.65-5.73,6.81-13.24,10.39-21.97,10.42-9.89.03-19.78-.85-29.67-1.35-.39-.02-.78-.22-1.74-.5Z" style="fill: #fff; stroke-width: 0px;"/>
    <path d="M162.55,109.59c3.75-3.75,7.07-7.15,10.51-10.42.56-.53,1.65-.71,2.49-.69,6.45.09,12.9.3,19.35.39,1.75.02,3.49-.3,5.24-.4,2.68-.16,3.68,1.22,2.54,3.68-1.72,3.7-4.7,6.26-8.51,7.36-3.32.96-6.88,1.57-10.33,1.54-6.52-.05-13.03-.67-19.55-1.06-.33-.02-.66-.14-1.75-.38Z" style="fill: #fff; stroke-width: 0px;"/>
    <path d="M171.69,92.64c-.52-9.61-1.24-18.81,4.03-27.14,2.15-3.4,5.08-5.97,8.55-7.92.62-.35,1.54-.18,2.32-.25-.11.76.03,1.7-.36,2.26-4.44,6.45-5.58,13.49-4.13,21.09.11.6-.03,1.49-.42,1.89-3.16,3.27-6.4,6.46-10,10.06Z" style="fill: #fff; stroke-width: 0px;"/>
    <path d="M124.31,102.53c.08,1.58.15,3.16.24,4.73.57,9.68,1.18,19.35,1.67,29.03.05.96-.43,2.15-1.07,2.89-1.53,1.79-3.29,3.37-5.31,5.4-.29-4.71-.65-8.89-.77-13.07-.16-5.47-.35-10.97-.08-16.43.15-3.03,1.05-6.07,1.93-9.01.43-1.42,1.6-2.61,2.43-3.9l.97.36Z" style="fill: #fff; stroke-width: 0px;"/>
    <path d="M125.21,146.83c1.85-1.85,3.44-3.52,5.12-5.06.4-.36,1.17-.49,1.75-.46,10.52.62,21.04,1.28,31.56,1.95.6.04,1.18.27,2.32.55-.97.97-1.5,1.93-2.27,2.2-2.96,1.02-6,2.58-9,2.54-9.47-.11-18.93-.85-28.4-1.36-.2-.01-.39-.13-1.07-.36Z" style="fill: #fff; stroke-width: 0px;"/>
    <path d="M179.77,92.37c2.26-2.26,4.5-4.55,6.82-6.76.3-.28,1.05-.25,1.54-.14,7.39,1.73,14.18.37,20.52-3.71,1.46-.67,1.5-.22,2.26-.32-.02.76.23,1.68-.1,2.27-2.47,4.45-5.85,7.99-11,9.11-6.52,1.41-13.1.81-19.65.26-.13-.24-.27-.48-.4-.71Z" style="fill: #fff; stroke-width: 0px;"/>
    <path d="M90.03,144.54c-.74-4.8-.81-10.24.53-15.28.22-.81,1.07-2.02,1.65-2.03.94-.02,2.25.55,2.78,1.31.67.97.92,2.35.98,3.58.45,9.71,1.84,19.29,3.78,28.8.13.64.13,1.31.23,2.49-3.83-3.35-6.63-6.77-7.88-11.21" style="fill: #fff; stroke-width: 0px;"/>
    <path d="M185.5,117.4c-4.16,4.15-8.77,5.28-13.63,5.17-6.52-.15-13.03-.7-19.54-1.09-.26-.02-.5-.15-1.36-.41,2.08-2.08,3.85-3.93,5.73-5.66.38-.35,1.18-.4,1.77-.36,8.06.46,16.11.95,24.16,1.49.87.06,1.71.5,2.88.86Z" style="fill: #fff; stroke-width: 0px;"/>
    <path d="M117.43,177.08c-4.85-1.36-8.94-3.83-11.79-8.05,9.88,2.11,19.67,3.81,29.67,4.11,1.19.03,2.48-.24,3.55.13,1.04.37,2.26,1.21,2.66,2.16.58,1.37-.72,2.09-1.91,2.49-5.05,1.71-10.22,1.79-15.39.84" style="fill: #fff; stroke-width: 0px;"/>
    <path d="M90.1,174.6c1.64-1.64,3.24-3.3,4.92-4.9,1.58-1.51,3.44-1.77,4.49-.58,1.39,1.57.67,3.07-.52,4.3-3.36,3.48-6.77,6.92-10.24,10.29-1.19,1.15-2.72,1.71-4.1.29-1.35-1.4-.81-2.91.31-4.13,1.65-1.81,3.45-3.49,5.19-5.23l-.03-.03Z" style="fill: #fff; stroke-width: 0px;"/>
  </g>
</svg>